<?xml version="1.0" encoding="utf-8"?><svg xmlns="http://www.w3.org/2000/svg" xmlns:xlink="http://www.w3.org/1999/xlink"><symbol viewBox="0 0 12.13 7.09" id="arrowBottom" xmlns="http://www.w3.org/2000/svg"><path d="M11.808 1.048l-.393-.395a.652.652 0 00-.464-.192.652.652 0 00-.464.192L6.003 5.137 1.513.647a.651.651 0 00-.464-.19.652.652 0 00-.464.19l-.393.394a.657.657 0 000 .928l5.345 5.364c.123.124.288.21.465.21h.002a.67.67 0 00.464-.21l5.34-5.35a.663.663 0 000-.935z"/></symbol><symbol viewBox="0 0 12.13 7.09" id="arrowBottom2" xmlns="http://www.w3.org/2000/svg"><path d="M1.172 1.069l.391-.397A.653.653 0 012.027.48a.656.656 0 01.465.188l4.506 4.448L11.465.617a.652.652 0 01.463-.193.652.652 0 01.465.189l.395.39c.258.253.26.669.005.925L7.475 7.303a.672.672 0 01-.464.212h-.002a.672.672 0 01-.465-.207L1.177 2a.66.66 0 01-.005-.932z"/></symbol><symbol viewBox="0 0 5.92 10.09" id="arrowLeft" xmlns="http://www.w3.org/2000/svg"><path d="M5.495 10.85l.328-.33a.546.546 0 00.159-.39.546.546 0 00-.162-.387L2.067 6.01l3.728-3.77a.545.545 0 00.158-.388.546.546 0 00-.162-.388l-.329-.327a.547.547 0 00-.774.003L.235 5.627a.562.562 0 00-.174.39v.001c0 .147.073.285.177.387l4.477 4.448a.552.552 0 00.78-.003z"/></symbol><symbol viewBox="0 0 11.23 19.1" id="arrowRight" xmlns="http://www.w3.org/2000/svg"><path d="M1.84 19.703l-.628-.622a1.032 1.032 0 01-.305-.734c0-.279.107-.54.303-.736l7.09-7.11-7.118-7.097a1.031 1.031 0 01-.305-.734c0-.279.107-.54.303-.736l.622-.623a1.04 1.04 0 011.47-.002l8.504 8.45c.196.196.334.456.335.737v.003c0 .278-.137.54-.333.735L3.32 19.701a1.05 1.05 0 01-.742.305 1.04 1.04 0 01-.739-.303z"/></symbol><symbol viewBox="0 0 20.05 19.17" id="bad" xmlns="http://www.w3.org/2000/svg"><path d="M0 8.125c0 .5.2.967.542 1.312a2.067 2.067 0 00-.533 1.59c.098 1.06 1.052 1.89 2.173 1.89H7.33c-.255.774-.663 2.193-.663 3.333 0 1.807 1.536 3.333 2.5 3.333.865 0 1.484-.487 1.51-.507a.42.42 0 00.156-.326v-2.826l2.401-5.2.1-.05v.16c0 .23.186.416.416.416h4.167A2.085 2.085 0 0020 9.167V2.5c0-1.15-.934-2.083-2.083-2.083h-2.5c-.901 0-1.671.575-1.961 1.377-.694-.357-1.627-.544-2.206-.544H3.6c-.907 0-1.7.612-1.888 1.455-.095.435-.04.872.15 1.252a1.867 1.867 0 00-.834 2.5A1.867 1.867 0 000 8.125zm1.758-1.028a.418.418 0 00.238-.718c-.212-.2-.33-.467-.33-.754 0-.526.398-.968.924-1.028a.418.418 0 00.238-.718 1.03 1.03 0 01-.301-.994c.102-.465.554-.802 1.074-.802h7.649c.677 0 1.812.318 2.205.712a.417.417 0 00.712-.295c0-.69.56-1.25 1.25-1.25h2.5c.689 0 1.25.56 1.25 1.25v6.667c0 .689-.561 1.25-1.25 1.25h-3.75V10a.418.418 0 00-.199-.355.426.426 0 00-.405-.018l-.833.417a.416.416 0 00-.192.198l-2.5 5.416a.425.425 0 00-.038.175v2.691a1.757 1.757 0 01-.833.226c-.457 0-1.667-1.135-1.667-2.5 0-1.467.798-3.58.806-3.602a.42.42 0 00-.046-.385.419.419 0 00-.343-.18H2.183c-.695 0-1.285-.497-1.344-1.132a1.245 1.245 0 01.594-1.18.416.416 0 00-.029-.725 1.032 1.032 0 01.354-1.95z"/></symbol><symbol viewBox="0 0 27.03 26.3" id="basket" xmlns="http://www.w3.org/2000/svg"><path d="M8.613 20.645a2.819 2.819 0 100 5.637 2.819 2.819 0 000-5.637zm0 4.385a1.566 1.566 0 110-3.132 1.566 1.566 0 010 3.132zm11.901-4.385a2.819 2.819 0 100 5.637 2.819 2.819 0 000-5.637zm0 4.385a1.566 1.566 0 110-3.132 1.566 1.566 0 010 3.132zm6.358-20.828a.783.783 0 00-.5-.25L5.981 3.67l-.564-1.723A2.881 2.881 0 002.725.005H.626a.626.626 0 100 1.253h2.099a1.63 1.63 0 011.503 1.096L8.206 14.35l-.313.72c-.35.9-.245 1.915.282 2.725a2.913 2.913 0 002.348 1.315h12.184a.626.626 0 100-1.252H10.523a1.597 1.597 0 01-1.315-.752 1.722 1.722 0 01-.157-1.503l.251-.564 13.186-1.378a3.445 3.445 0 002.975-2.631l1.503-6.295a.532.532 0 00-.094-.533zm-2.63 6.546a2.13 2.13 0 01-1.911 1.66L9.302 13.755 6.389 4.923l19.2.281-1.348 5.544z"/></symbol><symbol viewBox="0 0 70.05 70.58" id="blank" xmlns="http://www.w3.org/2000/svg"><path d="M27.496 29.625H50.64a.926.926 0 100-1.852H27.496a.926.926 0 000 1.852zm-9.349-1.097l-2.056 1.966-.835-.834a.926.926 0 10-1.309 1.31l1.474 1.474a.926.926 0 001.295.014l2.711-2.592a.926.926 0 10-1.28-1.338z"/><path d="M16.695 24.21a6.283 6.283 0 106.283 6.282 6.29 6.29 0 00-6.283-6.283zm0 10.714a4.431 4.431 0 110-8.864 4.431 4.431 0 010 8.865zm10.801 10.131H50.64a.926.926 0 100-1.852H27.496a.926.926 0 000 1.852zm-9.349-1.097l-2.056 1.966-.835-.834a.926.926 0 10-1.309 1.309l1.474 1.474a.926.926 0 001.295.015l2.711-2.592a.926.926 0 10-1.28-1.338z"/><path d="M16.695 39.639a6.283 6.283 0 106.283 6.283 6.29 6.29 0 00-6.283-6.283zm0 10.715a4.432 4.432 0 110-8.866 4.432 4.432 0 010 8.866zm1.452 9.033l-2.056 1.967-.835-.834a.926.926 0 10-1.309 1.309l1.474 1.474a.926.926 0 001.295.015l2.711-2.593a.927.927 0 00-.618-1.598.925.925 0 00-.662.26z"/><path d="M16.695 55.069a6.283 6.283 0 106.283 6.283 6.29 6.29 0 00-6.283-6.283zm0 10.714a4.432 4.432 0 110-8.865 4.432 4.432 0 010 8.866zM27.496 32.71h12.343a.926.926 0 100-1.85H27.496a.926.926 0 100 1.85zm0 15.43h12.343a.926.926 0 100-1.85H27.496a.926.926 0 100 1.85zM9.104 14.52a.925.925 0 00-.926.925v.972a.926.926 0 001.851 0v-.972a.926.926 0 00-.925-.926zm0 3.902a.926.926 0 00-.926.925v8.95a.926.926 0 001.851 0v-8.95a.925.925 0 00-.925-.925z"/><path d="M70.555 41.305a4.786 4.786 0 00-3.621.691l-9.535 6.263V13.52c0-3.063-2.518-5.497-5.58-5.497H45.98V5.15a.926.926 0 00-1.851 0v2.873h-7.87V5.15a.926.926 0 00-1.85 0v2.873h-7.716V5.15a.926.926 0 00-1.851 0v2.873h-7.87V5.15a.926.926 0 00-1.85 0v2.873h-4.964a5.49 5.49 0 00-5.53 5.497v55.701c0 3.063 2.467 5.613 5.53 5.613h41.66c3.063 0 5.58-2.55 5.58-5.613v-9.437l14.826-9.736a4.816 4.816 0 00-1.669-8.743zM45.002 13.821a1.637 1.637 0 110 3.274 1.637 1.637 0 010-3.274zm-9.647 0a1.637 1.637 0 110 3.274 1.637 1.637 0 010-3.274zm-9.647 0a1.638 1.638 0 11-.001 3.276 1.638 1.638 0 010-3.276zm-9.647 0a1.637 1.637 0 110 3.274 1.637 1.637 0 010-3.274zm39.486 55.4a3.779 3.779 0 01-3.728 3.761h-41.66c-2.043 0-3.679-1.719-3.679-3.76V13.52a3.637 3.637 0 013.678-3.645h4.963v2.22c-1.389.407-2.556 1.76-2.556 3.364a3.488 3.488 0 106.976 0 3.423 3.423 0 00-2.568-3.364v-2.22h7.869v2.22a3.445 3.445 0 00-2.592 3.364 3.493 3.493 0 006.984 0 3.58 3.58 0 00-2.54-3.364v-2.22h7.714v2.22c-1.389.407-2.552 1.76-2.552 3.364a3.488 3.488 0 006.974 0 3.425 3.425 0 00-2.57-3.364v-2.22h7.869v2.22a3.44 3.44 0 00-2.589 3.364 3.492 3.492 0 106.984 0c0-1.603-1.155-2.957-2.544-3.364v-2.22h5.839c2.041 0 3.728 1.604 3.728 3.645v35.955l-3.477 2.283a.925.925 0 001.016 1.547l13.766-9.04 1.12 1.705-23.323 15.317-1.12-1.705 4.382-2.877a.926.926 0 10-1.017-1.548l-5.152 3.383-.027.021a1.053 1.053 0 00-.069.052l-.02.02h-14.13a.926.926 0 100 1.851h13.086l-.656 1.24a.949.949 0 00-.087-.005H27.497a.925.925 0 100 1.852h11.452l-1.07 2.022a.927.927 0 00.818 1.358h.024l7.824-.205c.02 0 .038-.003.057-.005.018-.001.04-.002.06-.006.024-.003.048-.01.072-.015l.053-.012a.913.913 0 00.118-.045c.01-.004.018-.01.028-.015a.925.925 0 00.087-.049l.01-.005L55.546 61v8.221zM44.833 64.94l-4.578.12 2.077-3.925 2.5 3.805zm1.952-.4l-.07-.109-1.05-1.596 23.323-15.316 1.12 1.704-23.323 15.316zM71.63 48.163l-3.203-4.873a2.987 2.987 0 012.48.074 2.976 2.976 0 01.723 4.8z"/></symbol><symbol viewBox="0 0 85 77.61" id="camera" xmlns="http://www.w3.org/2000/svg"><path d="M77.609 22.174H65.893l-6.763-7.391H33.26v11.086H22.175v11.087H11.087v36.957c0 4.065 3.326 7.391 7.391 7.391h59.13c4.066 0 7.392-3.326 7.392-7.391V29.565c0-4.065-3.326-7.391-7.391-7.391zM48.043 70.217c-10.2 0-18.478-8.278-18.478-18.478 0-10.2 8.278-18.478 18.478-18.478 10.2 0 18.479 8.278 18.479 18.478 0 10.2-8.279 18.478-18.479 18.478z"/><path d="M11.087 33.26h7.391V22.175h11.087v-7.391H18.478V3.696h-7.391v11.087H0v7.39h11.087v11.088zm36.956 6.653A11.813 11.813 0 0036.217 51.74a11.814 11.814 0 0011.826 11.826A11.814 11.814 0 0059.869 51.74a11.814 11.814 0 00-11.826-11.826z"/></symbol><symbol viewBox="0 0 17.03 16.16" id="chat" xmlns="http://www.w3.org/2000/svg"><g clip-path="url(#aiclip0)"><path d="M15.65 12.213C16.533 10.978 17 9.55 17 8.075c0-4.218-3.813-7.65-8.5-7.65C3.813.425 0 3.857 0 8.075s3.813 7.65 8.5 7.65a9.231 9.231 0 003.47-.665c1.927 1.112 4.592 1.496 4.708 1.512a.283.283 0 00.24-.48c-.653-.652-1.101-2.027-1.269-3.88zM12.137 14.5c-.598-.368-1.266-.797-1.421-.92a.283.283 0 00-.38-.082.29.29 0 00-.139.244c0 .166.002.218 1.157.94a8.7 8.7 0 01-2.855.475c-4.374 0-7.933-3.177-7.933-7.083S4.126.99 8.5.99s7.933 3.178 7.933 7.084c0 1.387-.45 2.732-1.303 3.888a.282.282 0 00-.054.192c.099 1.183.35 2.689.974 3.729-.944-.192-2.647-.619-3.912-1.383z"/></g><defs><clipPath id="aiclip0"><path d="M0 0h17v17H0z"/></clipPath></defs></symbol><symbol viewBox="0 0 47.03 47.03" id="clock" xmlns="http://www.w3.org/2000/svg"><path d="M40.117 6.883A23.346 23.346 0 0023.5 0 23.346 23.346 0 006.883 6.883 23.346 23.346 0 000 23.5a23.346 23.346 0 006.883 16.617A23.347 23.347 0 0023.5 47a23.347 23.347 0 0016.617-6.883A23.346 23.346 0 0047 23.5a23.346 23.346 0 00-6.883-16.617zM23.5 42.387c-10.415 0-18.887-8.473-18.887-18.887v-.085c.047-10.29 8.362-18.661 18.63-18.8l.065-.002.038.002.154-.002c10.415 0 18.888 8.473 18.888 18.887 0 10.415-8.473 18.887-18.888 18.887z"/><path d="M37.847 24.634a1.39 1.39 0 010-2.78h1.676c-.787-7.718-7.047-13.841-14.825-14.416v1.46a1.39 1.39 0 01-2.78 0V7.47C14.254 8.222 8.15 14.366 7.46 22.046h1.501a1.39 1.39 0 110 2.78H7.45c.64 7.804 6.865 14.05 14.66 14.72v-1.763a1.39 1.39 0 112.782 0v1.762c7.859-.675 14.123-7.017 14.675-14.91h-1.72zm-8.718-4.797l-4.646 4.646a1.39 1.39 0 01-1.966 0l-8.087-8.087a1.39 1.39 0 011.967-1.966l7.103 7.103 3.663-3.662a1.39 1.39 0 111.966 1.966z"/></symbol><symbol viewBox="0 0 62.35 62.36" id="credit" xmlns="http://www.w3.org/2000/svg"><path d="M48.414 22.786a7.25 7.25 0 012.151.325l6.198-6.198-2.889-2.888-8.76 8.76h3.3zm12.522-1.7l-1.604-1.604-5.613 5.613a7.237 7.237 0 011.96 4.956v1.43l5.257-5.257a3.633 3.633 0 000-5.138zm-9.63-9.63L40.914 1.064a3.633 3.633 0 00-5.138 0L14.054 22.786h25.922l11.33-11.33zM9.534 37.934h5.534v4.085H9.534v-4.085z"/><path d="M48.414 26.419H3.633A3.633 3.633 0 000 30.052v28.315A3.633 3.633 0 003.633 62h44.78a3.633 3.633 0 003.634-3.633V30.052a3.633 3.633 0 00-3.633-3.633zM5.9 34.3h12.8v11.351H5.9v-11.35zm7.068 19.816h-7.18v-3.633h7.18v3.633zm11.096 0h-7.18v-3.633h7.18v3.633zm11.097 0h-7.18v-3.633h7.18v3.633zm11.096 0h-7.18v-3.633h7.18v3.633z"/></symbol><symbol viewBox="0 0 61.99 62" id="delivery" xmlns="http://www.w3.org/2000/svg"><path fill-rule="evenodd" clip-rule="evenodd" d="M36.98 19.506c-1.921 6.991-9.593 19.72-17.548 19.72-8.11 0-15.72-13.072-17.547-19.72-1.098 0-1.885.677-1.885 1.816v33.317c0 1.003.748 1.816 1.67 1.816h4.285a6.964 6.964 0 0013.634 0h17.605c.923 0 1.67-.813 1.67-1.816V21.32c0-1.139-.786-1.815-1.884-1.815zM15.127 57.393c-2.091 2.091-5.684.604-5.684-2.354s3.593-4.446 5.684-2.355a3.33 3.33 0 010 4.71zm41.235-19.364H47.94a1.816 1.816 0 110-3.632h6.257l-1.396-2.343c-1.905-3.196-4.818-5.396-8.276-6.29a1.763 1.763 0 00-1.566.322 1.764 1.764 0 00-.704 1.436v27.093c0 1 .815 1.816 1.816 1.816h1.227a6.964 6.964 0 0013.644 0h1.228a1.816 1.816 0 001.816-1.816V43.72c0-3.174-2.467-5.62-5.624-5.69zm-1.887 19.364c-2.092 2.091-5.684.604-5.684-2.354s3.593-4.446 5.684-2.355a3.33 3.33 0 010 4.71zm-33.49-41.198a2.197 2.197 0 000-3.106c-1.379-1.379-3.748-.398-3.748 1.553s2.37 2.932 3.748 1.553z"/><path fill-rule="evenodd" clip-rule="evenodd" d="M19.432 35.593c2.876 0 6.73-3.478 9.717-7.934 2.761-4.12 4.925-9.173 4.925-13.017C34.074 6.556 27.52 0 19.432 0 11.346 0 4.791 6.556 4.791 14.642c0 3.844 2.164 8.898 4.925 13.017 2.987 4.456 6.841 7.934 9.716 7.934zm0-26.78a5.828 5.828 0 110 11.658 5.828 5.828 0 010-11.657z"/></symbol><symbol viewBox="0 0 78 61.55" id="delivery-truck" xmlns="http://www.w3.org/2000/svg"><g clip-path="url(#amclip0)"><path d="M76.477 42.225H73.91L69.692 29.85a1.523 1.523 0 00-1.442-1.032H54.844v-7.007c0-.842-.682-1.524-1.524-1.524h-7.312v-4.443c0-4.2-3.417-7.617-7.617-7.617H16.453c-4.2 0-7.617 3.417-7.617 7.617v4.443H1.523C.682 20.287 0 20.97 0 21.811v39c0 .841.682 1.523 1.523 1.523H8.26c.362 4.162 3.864 7.44 8.118 7.44 4.254 0 7.756-3.278 8.117-7.44h8.469a1.523 1.523 0 100-3.047h-8.778a8.178 8.178 0 00-3.036-4.265h30.648v4.265h-5.123a1.523 1.523 0 100 3.047h7.714c.362 4.162 3.863 7.44 8.117 7.44 4.255 0 7.756-3.278 8.118-7.44h5.854c.84 0 1.523-.682 1.523-1.523V43.748c0-.841-.682-1.523-1.523-1.523zm-1.524 6.703h-3.656v-3.656h3.656v3.656zM67.16 31.865l3.532 10.36H54.844v-10.36H67.16zM31.994 11.273v7.4l-3.682-2.639a1.522 1.522 0 00-1.776 0l-3.682 2.64v-7.4h9.14zm-20.111 4.57c0-2.52 2.05-4.57 4.57-4.57h3.354V21.64a1.524 1.524 0 002.41 1.238l5.207-3.731 5.206 3.731a1.523 1.523 0 002.411-1.238V11.273h3.35c2.52 0 4.57 2.05 4.57 4.57v21.938c0 2.52-2.05 4.57-4.57 4.57H16.453c-2.52 0-4.57-2.05-4.57-4.57V15.844zm4.494 50.884a5.11 5.11 0 01-5.104-5.104 5.11 5.11 0 015.104-5.103 5.11 5.11 0 015.104 5.103 5.11 5.11 0 01-5.104 5.104zm-7.808-7.44H3.047v-4.265h8.558a8.18 8.18 0 00-3.036 4.265zm-5.522-7.312V23.334h5.789v14.447c0 4.2 3.417 7.617 7.617 7.617h21.938c4.2 0 7.617-3.417 7.617-7.617V23.334h5.789v28.64H3.047zm59.458 14.752a5.11 5.11 0 01-5.103-5.104 5.11 5.11 0 015.103-5.103 5.11 5.11 0 015.104 5.103 5.11 5.11 0 01-5.104 5.104zm7.808-7.44c-1.007-3.359-4.125-5.814-7.808-5.814-3.518 0-6.522 2.24-7.661 5.37V45.271H68.25v5.18c0 .842.682 1.524 1.523 1.524h5.18v7.312h-4.64z"/><path d="M32.963 38.036h4.818a1.523 1.523 0 100-3.047h-4.818a1.523 1.523 0 100 3.047zm6.855 21.252c-.4 0-.794.161-1.077.446a1.535 1.535 0 00-.447 1.077c0 .4.163.794.447 1.077.283.284.676.447 1.077.447.4 0 .794-.163 1.077-.447.283-.283.446-.676.446-1.077 0-.4-.163-.794-.446-1.077a1.528 1.528 0 00-1.077-.446z"/></g><defs><clipPath id="amclip0"><path d="M0 0h78v78H0z"/></clipPath></defs></symbol><symbol viewBox="0 0 6.75 6.39" id="detail" xmlns="http://www.w3.org/2000/svg"><path d="M7.25 5.192v-.007L4.606.607A8.156 8.156 0 01.5 1.717V7c2.449 0 4.76-.66 6.75-1.808z"/></symbol><symbol viewBox="0 0 27.63 27.38" id="facebook" xmlns="http://www.w3.org/2000/svg"><path d="M14.153 27.737C6.584 27.77.361 21.47.541 13.776.711 6.448 6.781.394 14.328.476c7.476.082 13.661 6.305 13.459 14.01-.192 7.296-6.213 13.29-13.634 13.251zM2.198 14.126c.06 6.852 5.617 12.13 12.18 12.014 6.354-.114 11.74-5.293 11.74-12.03 0-6.853-5.6-12.152-12.184-12.027-6.354.115-11.692 5.31-11.736 12.043z"/><path d="M11.31 23.702V14.06H9.203v-3.248c.093-.006.186-.017.284-.017.509 0 1.023-.01 1.532.006.224.005.3-.055.295-.285-.011-.83-.011-1.657-.006-2.488.006-.935.268-1.783.936-2.46A3.571 3.571 0 0114.613 4.5c1.443-.082 2.893-.071 4.342-.099.016 0 .033.017.065.033V7.77a5.197 5.197 0 01-.295.011h-1.969c-.662.005-1.05.4-1.05 1.05 0 .618 0 1.241.006 1.86 0 .016.01.032.027.092h3.325c-.142 1.11-.273 2.171-.416 3.27h-2.953v9.658c-1.47-.01-2.904-.01-4.386-.01z"/></symbol><symbol viewBox="0 0 15.06 29" id="fb" xmlns="http://www.w3.org/2000/svg"><path d="M10.746 29V15.773h4.438l.666-5.157h-5.104V7.325c0-1.493.413-2.51 2.555-2.51l2.728-.001V.202C15.558.14 13.94 0 12.053 0c-3.936 0-6.63 2.403-6.63 6.814v3.802H.97v5.157h4.451V29h5.324z"/></symbol><symbol viewBox="0 0 44 43.91" id="global" xmlns="http://www.w3.org/2000/svg"><g clip-path="url(#aqclip0)"><path d="M22.786 43.974c3.365-.478 6.314-3.99 8.17-9.176a39.94 39.94 0 00-8.17-.962v10.138zm5.376-.824c.199-.058.397-.116.594-.18.166-.053.329-.111.493-.168.193-.067.386-.136.578-.209.163-.062.325-.128.488-.194l.56-.236a23.19 23.19 0 001.496-.73 23.352 23.352 0 001.946-1.169 39.044 39.044 0 00.927-.659c.157-.121.319-.247.476-.373.14-.111.28-.222.418-.337.157-.13.308-.266.46-.4.134-.12.268-.237.399-.359.15-.14.296-.285.442-.43.127-.124.255-.248.38-.376.022-.024.044-.05.068-.074a26.432 26.432 0 00-5.388-2.073 19.513 19.513 0 01-5.026 8.16l.191-.046c.168-.047.334-.099.498-.148zM44 22.804h-9.43a40.78 40.78 0 01-1.588 10.88 27.35 27.35 0 015.968 2.374A21.97 21.97 0 0044 22.804zm-21.214-1.572h10.212A39.34 39.34 0 0031.45 10.74a41.42 41.42 0 01-8.664 1.033v9.459zm0-21.17V10.2a39.967 39.967 0 008.17-.962C29.1 4.052 26.151.54 22.786.062zm0 32.201c2.916.04 5.82.385 8.664 1.034A39.343 39.343 0 0033 22.804H22.785v9.46zM38.951 7.978a27.35 27.35 0 01-5.968 2.374 40.78 40.78 0 011.588 10.88H44a21.976 21.976 0 00-5.05-13.254zM37.89 6.785c-.024-.024-.046-.05-.068-.073-.125-.129-.254-.252-.38-.377-.146-.144-.292-.29-.442-.43-.13-.12-.265-.235-.399-.356-.152-.135-.305-.272-.461-.402-.136-.115-.276-.225-.414-.335a16.823 16.823 0 00-.911-.69 18.904 18.904 0 00-1.456-.96 21.998 21.998 0 00-.988-.561c-.158-.08-.315-.165-.472-.243a17.42 17.42 0 00-.55-.266 17.113 17.113 0 00-.48-.219c-.186-.083-.374-.157-.562-.236a18.864 18.864 0 00-1.065-.402 20.627 20.627 0 00-.493-.168 19.207 19.207 0 00-.595-.18c-.163-.048-.328-.097-.493-.14-.064-.018-.128-.031-.192-.048a19.515 19.515 0 015.026 8.161 26.392 26.392 0 005.394-2.075zM0 21.232h9.429c.035-3.682.57-7.341 1.587-10.88a27.316 27.316 0 01-5.968-2.374A21.97 21.97 0 000 21.232zm21.214 22.742V33.836a39.96 39.96 0 00-8.17.962c1.855 5.186 4.805 8.698 8.17 9.176zm0-21.17H11.002c.04 3.552.56 7.081 1.548 10.493a41.393 41.393 0 018.664-1.034v-9.459zm0-22.742c-3.365.478-6.315 3.99-8.17 9.176 2.683.601 5.42.924 8.17.962V.062zm0 11.711a41.422 41.422 0 01-8.664-1.034A39.324 39.324 0 0011 21.233h10.213v-9.46zM16.525.698c-.064.017-.128.03-.191.047-.167.044-.331.094-.497.142-.197.058-.393.116-.591.179a28.147 28.147 0 00-1.072.376 22.61 22.61 0 00-.489.195l-.559.236a22.795 22.795 0 00-2.485 1.29c-.17.103-.34.21-.508.315a20.615 20.615 0 00-.942.64 37.38 37.38 0 00-.435.314c-.16.121-.314.247-.476.373-.14.111-.281.222-.418.338-.157.13-.307.264-.458.398-.135.12-.27.237-.401.36-.15.14-.295.285-.441.428-.127.126-.256.25-.38.378-.023.024-.045.05-.069.074a26.4 26.4 0 005.388 2.074A19.505 19.505 0 0116.526.698zM6.558 37.701c.147.144.292.29.442.43.13.12.265.235.4.356.152.136.304.272.46.402.137.114.275.225.414.335.158.128.315.254.481.377.142.106.286.21.43.315a16.19 16.19 0 00.944.639 19.472 19.472 0 00.97.589c.177.1.353.198.53.293.158.079.315.164.473.243a21.528 21.528 0 001.03.485c.185.082.373.157.561.235a17.891 17.891 0 001.065.402c.164.058.327.115.493.169.197.063.393.122.595.18.164.048.328.096.493.14.064.018.128.031.192.048a19.518 19.518 0 01-5.026-8.161 26.4 26.4 0 00-5.388 2.074l.068.073c.118.128.245.251.373.376zm-1.51-1.643a27.353 27.353 0 015.968-2.374 40.794 40.794 0 01-1.587-10.88H0a21.974 21.974 0 005.048 13.254z"/></g><defs><clipPath id="aqclip0"><path d="M0 0h44v44H0z"/></clipPath></defs></symbol><symbol viewBox="0 0 20.05 19.17" id="good" xmlns="http://www.w3.org/2000/svg"><path d="M20 11.875c0-.5-.2-.967-.543-1.312.39-.425.588-.996.534-1.59-.098-1.06-1.052-1.89-2.174-1.89H12.67c.255-.774.663-2.193.663-3.333 0-1.807-1.536-3.333-2.5-3.333-.865 0-1.484.487-1.51.507a.42.42 0 00-.156.326v2.826l-2.401 5.2-.1.05v-.16a.417.417 0 00-.416-.416H2.083A2.085 2.085 0 000 10.833V17.5c0 1.15.934 2.083 2.083 2.083h2.5c.901 0 1.671-.575 1.961-1.377.694.357 1.627.544 2.206.544h7.65c.907 0 1.7-.612 1.888-1.455.095-.435.04-.872-.15-1.252a1.867 1.867 0 00.834-2.5A1.867 1.867 0 0020 11.875zm-1.758 1.028a.418.418 0 00-.238.718c.212.2.33.467.33.754 0 .526-.398.968-.924 1.028a.418.418 0 00-.238.717c.274.26.384.622.301.995-.102.465-.554.802-1.074.802H8.75c-.677 0-1.812-.318-2.205-.712a.417.417 0 00-.712.295c0 .69-.56 1.25-1.25 1.25h-2.5c-.689 0-1.25-.56-1.25-1.25v-6.667c0-.689.561-1.25 1.25-1.25h3.75V10a.418.418 0 00.604.373l.833-.417a.416.416 0 00.192-.198l2.5-5.416A.424.424 0 0010 4.167V1.476c.173-.096.474-.226.833-.226.457 0 1.667 1.135 1.667 2.5 0 1.467-.798 3.58-.806 3.602a.42.42 0 00.046.385.42.42 0 00.343.18h5.734c.695 0 1.285.497 1.344 1.132.044.475-.184.927-.594 1.18a.416.416 0 00.029.725 1.032 1.032 0 01-.354 1.95z"/></symbol><symbol viewBox="0 0 27 27" id="google" xmlns="http://www.w3.org/2000/svg"><g clip-path="url(#asclip0)"><path d="M25.981 11.153H14.968a.88.88 0 00-.88.88v3.518c0 .486.394.88.88.88h6.202a8.28 8.28 0 01-3.564 4.177l2.645 4.577C24.493 22.732 27 18.427 27 13.61c0-.687-.05-1.177-.152-1.73a.885.885 0 00-.868-.726z"/><path d="M13.5 21.717c-3.035 0-5.685-1.658-7.108-4.112l-4.578 2.639C4.144 24.28 8.508 27 13.5 27c2.449 0 4.76-.66 6.75-1.809v-.006l-2.645-4.578a8.157 8.157 0 01-4.105 1.11z"/><path d="M20.25 25.192v-.007l-2.645-4.578a8.156 8.156 0 01-4.105 1.11V27c2.449 0 4.76-.66 6.75-1.808zM5.283 13.5c0-1.496.408-2.896 1.11-4.105L1.814 6.756A13.36 13.36 0 000 13.5c0 2.455.66 4.76 1.815 6.744l4.577-2.639a8.156 8.156 0 01-1.11-4.105z"/><path d="M13.5 5.283a8.18 8.18 0 015.217 1.873c.35.288.86.267 1.18-.053L22.39 4.61a.887.887 0 00-.05-1.298A13.46 13.46 0 0013.5 0C8.508 0 4.144 2.719 1.814 6.756l4.578 2.639C7.815 6.94 10.465 5.283 13.5 5.283z"/><path d="M18.717 7.156c.35.288.86.267 1.18-.053L22.39 4.61a.887.887 0 00-.05-1.298A13.46 13.46 0 0013.5 0v5.283a8.18 8.18 0 015.217 1.873z"/></g><defs><clipPath id="asclip0"><path d="M0 0h27v27H0z"/></clipPath></defs></symbol><symbol viewBox="0 0 68.45 64.69" id="hand" xmlns="http://www.w3.org/2000/svg"><g clip-path="url(#atclip0)"><path d="M32.852 26.31a.997.997 0 001.517-.175l6.63-10.153a1.02 1.02 0 00-.28-1.401.988.988 0 00-1.381.284l-5.975 9.15-3.32-3.2a.986.986 0 00-1.408.038 1.021 1.021 0 00.037 1.429l4.18 4.027z"/><path d="M33.532 41.726c.19.088.401.135.61.135h.01c.212-.001.426-.05.617-.143 15.147-7.31 17.714-23.08 18.14-27.74a2.42 2.42 0 00-1.47-2.465c-3.015-1.27-5.064-4.11-5.349-7.413a1.977 1.977 0 00-1.952-1.809h-.012l-20.406.122c-1.029.005-1.865.799-1.944 1.845-.25 3.303-2.27 6.164-5.27 7.467a2.413 2.413 0 00-1.433 2.478c.48 4.654 3.229 20.394 18.46 27.523zM17.29 13.583c3.678-1.596 6.157-5.1 6.472-9.15l20.348-.12c.361 4.04 2.875 7.512 6.567 9.067.165.07.265.235.249.412-.4 4.367-2.79 19.09-16.786 25.99-14.076-6.732-16.635-21.427-17.085-25.789a.4.4 0 01.235-.41z"/><path d="M19.775 19.186c.12.45.683.861 1.223.71.53-.148.844-.701.7-1.24a33.755 33.755 0 01-.634-2.863 14.192 14.192 0 005.699-7.58l14.385-.085a14.184 14.184 0 005.787 7.51 33.048 33.048 0 01-.602 2.873 1.013 1.013 0 00.715 1.233.995.995 0 001.214-.726 35.58 35.58 0 00.69-3.373 1.554 1.554 0 00-.718-1.568 12.174 12.174 0 01-5.287-6.876 1.543 1.543 0 00-1.464-1.097h-.009l-15.06.09a1.544 1.544 0 00-1.461 1.114 12.18 12.18 0 01-5.207 6.94c-.528.332-.803.95-.7 1.575a35.63 35.63 0 00.73 3.363zm26.474 2.997a.99.99 0 00-1.3.549c-2.302 5.661-5.947 9.965-10.835 12.798-4.926-2.778-8.623-7.046-10.99-12.69a.991.991 0 00-1.306-.533 1.016 1.016 0 00-.527 1.326c2.583 6.158 6.653 10.8 12.095 13.797a1.507 1.507 0 001.478-.008c5.402-3.058 9.414-7.741 11.926-13.92a1.015 1.015 0 00-.541-1.319zM6.39 54.01c-1.942 0-3.523 1.605-3.523 3.577 0 1.971 1.581 3.575 3.524 3.575s3.525-1.603 3.525-3.575c0-1.973-1.581-3.577-3.525-3.577zm0 5.131a1.545 1.545 0 01-1.531-1.554c0-.858.687-1.555 1.532-1.555s1.532.698 1.532 1.555-.687 1.554-1.532 1.554z"/><path d="M67.286 44.115c-1.277-1.903-3.848-2.408-5.73-1.124l-13.022 8.843-2.78-.158-.071-.723c-.277-2.828-2.408-5.082-5.181-5.48a.787.787 0 00-.053-.006L26.418 44.22c-.475-.075-1.994-.518-6.17-2.948A15.327 15.327 0 0013.15 39.2v-2.644c0-1.328-1.064-2.407-2.371-2.407H2.37C1.064 34.148 0 35.228 0 36.555v26.043c0 1.326 1.064 2.406 2.371 2.406h8.406c1.308 0 2.372-1.08 2.372-2.406v-.718l12.265 4.713c.027.01 1.023.389 2.855.213l20.38-2.98.015-.003a9.953 9.953 0 004.749-2.16l.036-.03 13.163-12.014c1.55-1.397 1.84-3.763.674-5.504zm-2.002 3.997l-13.148 12a7.972 7.972 0 01-3.78 1.713l-20.364 2.98a.42.42 0 00-.018.002l-.01.002a4.412 4.412 0 01-1.886-.123l-12.929-4.968V48.175c0-.558-.446-1.01-.996-1.01s-.996.452-.996 1.01v14.423c0 .212-.17.384-.38.384H2.371a.383.383 0 01-.379-.384V36.555c0-.212.17-.385.38-.385h8.405c.21 0 .38.172.38.385v7.055c0 .558.446 1.01.996 1.01s.996-.452.996-1.01v-2.388a13.35 13.35 0 016.108 1.803c5.036 2.931 6.442 3.133 6.904 3.2l.053.006 14.033 1.247c1.85.278 3.268 1.786 3.453 3.675l.053.54-18.787 1.176c-.013 0-.026-.002-.037-.003a2.26 2.26 0 01-1.55-.823.985.985 0 00-1.403-.129 1.02 1.02 0 00-.127 1.424 4.295 4.295 0 002.902 1.542c.616.065 20.098-1.231 20.098-1.231l3.906.222a.983.983 0 00.61-.169l13.3-9.032a2.134 2.134 0 012.973.582 2.21 2.21 0 01-.354 2.86z"/></g><defs><clipPath id="atclip0"><path d="M0 0h68v69H0z"/></clipPath></defs></symbol><symbol viewBox="0 0 27 23.93" id="heart" xmlns="http://www.w3.org/2000/svg"><path d="M25.03 2.56A6.842 6.842 0 0019.828.219c-2.845 0-4.646 1.699-5.656 3.124-.262.37-.485.74-.672 1.09a10.35 10.35 0 00-.672-1.09C11.818 1.917 10.017.218 7.172.218c-2.023 0-3.87.832-5.202 2.343C.7 4.002 0 5.933 0 7.997c0 2.246.877 4.336 2.76 6.576 1.684 2.001 4.105 4.065 6.909 6.454 1.045.89 2.125 1.811 3.275 2.818l.035.03a.79.79 0 001.042 0l.035-.03c1.15-1.007 2.23-1.927 3.275-2.818 2.804-2.39 5.226-4.453 6.909-6.454 1.883-2.24 2.76-4.33 2.76-6.576 0-2.064-.7-3.995-1.97-5.436zm-8.725 17.263c-.9.767-1.828 1.557-2.805 2.407-.977-.85-1.904-1.64-2.805-2.407-5.488-4.676-9.113-7.765-9.113-11.826 0-1.679.56-3.238 1.575-4.39A5.28 5.28 0 017.172 1.8c2.169 0 3.57 1.336 4.365 2.457a9.379 9.379 0 011.21 2.407.791.791 0 001.505 0 9.38 9.38 0 011.211-2.407c.794-1.121 2.196-2.457 4.365-2.457a5.28 5.28 0 014.015 1.807c1.016 1.152 1.575 2.711 1.575 4.39 0 4.06-3.625 7.15-9.113 11.826z"/></symbol><symbol viewBox="0 0 27.21 27.2" id="instagramm" xmlns="http://www.w3.org/2000/svg"><path d="M27.617 14.055c0 1.903-.038 3.811.011 5.714.082 3.37-2.034 5.972-4.73 7.132a8.555 8.555 0 01-3.396.71c-3.68.006-7.367.055-11.047-.016-2.773-.055-5.053-1.214-6.689-3.5-.858-1.203-1.268-2.57-1.268-4.052V8.285c0-3.2 1.558-5.436 4.325-6.89C6.027.764 7.333.496 8.695.491c3.571 0 7.148-.022 10.72.01 2.772.023 5.085 1.084 6.791 3.315.952 1.247 1.411 2.68 1.411 4.255v5.983zm-25.101 0v6.015c0 .897.207 1.74.672 2.5 1.22 1.995 3.063 2.969 5.349 3.007 3.67.055 7.344.022 11.02.011.902 0 1.777-.186 2.591-.574 2.22-1.061 3.462-2.75 3.451-5.288-.022-3.883-.005-7.766-.005-11.649 0-1.1-.312-2.105-.963-2.991-1.258-1.701-2.997-2.538-5.075-2.56-3.664-.043-7.328-.016-10.992-.01-.782 0-1.537.158-2.27.431-2.012.75-3.882 2.647-3.795 5.442.066 1.892.017 3.779.017 5.666z"/><path d="M14.088 19.852c-3.528 0-6.372-2.811-6.377-6.311-.005-3.446 2.86-6.268 6.366-6.268 3.516-.005 6.37 2.811 6.376 6.284 0 3.467-2.849 6.29-6.365 6.295zm0-2.024c2.4 0 4.347-1.92 4.342-4.282-.006-2.34-1.953-4.255-4.342-4.255-2.401 0-4.359 1.909-4.359 4.266.005 2.362 1.958 4.277 4.359 4.271zM21.192 5.36c.738 0 1.34.628 1.34 1.4-.006.77-.613 1.394-1.352 1.388-.727-.005-1.323-.628-1.323-1.383-.005-.771.596-1.406 1.335-1.406z"/></symbol><symbol viewBox="0 0 18.04 18" id="log-out" xmlns="http://www.w3.org/2000/svg"><g clip-path="url(#awclip0)"><path d="M10.125 15.75h-3a.375.375 0 010-.75h3c.62 0 1.125-.505 1.125-1.125v-3.75a.375.375 0 01.75 0v3.75c0 1.034-.84 1.875-1.875 1.875zm7.5-7.5h-7.5a.375.375 0 010-.75h7.5a.375.375 0 010 .75z"/><path d="M6 18c-.165 0-.326-.028-.479-.082L1.03 16.421A1.499 1.499 0 010 15V1.5C0 .673.673 0 1.5 0a1.4 1.4 0 01.48.083l4.49 1.496A1.497 1.497 0 017.5 3v13.5c0 .827-.673 1.5-1.5 1.5zM1.5.75a.75.75 0 00-.75.75V15a.75.75 0 00.516.71l4.5 1.5c.492.174.984-.22.984-.71V3a.747.747 0 00-.516-.709l-4.5-1.5A.69.69 0 001.5.75z"/><path d="M11.625 6a.375.375 0 01-.375-.375v-3.75c0-.62-.505-1.125-1.125-1.125H1.5a.375.375 0 010-.75h8.625C11.159 0 12 .842 12 1.875v3.75a.375.375 0 01-.375.375zm3 5.25a.375.375 0 01-.266-.64l2.735-2.734-2.735-2.735a.375.375 0 01.53-.53l3 3a.375.375 0 010 .53l-3 3a.376.376 0 01-.264.11z"/></g><defs><clipPath id="awclip0"><path d="M0 0h18v18H0z"/></clipPath></defs></symbol><symbol viewBox="0 0 16.07 11.75" id="mark" xmlns="http://www.w3.org/2000/svg"><path d="M15.766.36a.8.8 0 00-1.132 0L5.05 9.943 1.366 6.26A.8.8 0 00.234 7.39l4.25 4.25a.8.8 0 001.132 0l10.15-10.15a.8.8 0 000-1.132z"/></symbol><symbol viewBox="0 0 13.06 9.55" id="marker" xmlns="http://www.w3.org/2000/svg"><path d="M12.81.917a.65.65 0 00-.92 0L4.103 8.704 1.11 5.711a.65.65 0 10-.92.92l3.453 3.452a.65.65 0 00.92 0l8.247-8.247a.65.65 0 000-.92z"/></symbol><symbol viewBox="0 0 60.33 73" id="money" xmlns="http://www.w3.org/2000/svg"><g clip-path="url(#azclip0)"><path d="M59.55 29.177H32.356a8.191 8.191 0 002.021-5.393c0-4.537-3.691-8.228-8.228-8.228-4.538 0-8.229 3.69-8.229 8.228 0 2.062.764 3.948 2.022 5.393H13.45a7.122 7.122 0 00-7.114 7.114v8.395a1.423 1.423 0 102.846 0V36.29a4.273 4.273 0 014.268-4.268h39.84a4.273 4.273 0 014.268 4.268v7.683H42.76a7.122 7.122 0 00-7.114 7.115 7.122 7.122 0 007.114 7.114h14.798v7.683a4.273 4.273 0 01-4.269 4.268H13.45a4.273 4.273 0 01-4.268-4.268V57.48a1.423 1.423 0 10-2.846 0v8.406A7.122 7.122 0 0013.45 73h46.1a7.122 7.122 0 007.114-7.114V36.29a7.122 7.122 0 00-7.114-7.114zM26.149 18.401a5.389 5.389 0 015.383 5.383 5.389 5.389 0 01-5.383 5.383 5.389 5.389 0 01-5.383-5.383 5.389 5.389 0 015.383-5.383zm32.828 13.622h.573a4.273 4.273 0 014.268 4.268v7.683h-3.415v-7.683c0-1.6-.531-3.078-1.426-4.268zM38.492 51.089a4.273 4.273 0 014.268-4.269h21.058v8.537H42.76a4.273 4.273 0 01-4.268-4.268zM59.55 70.154h-.573a7.077 7.077 0 001.426-4.268v-7.683h3.415v7.683a4.273 4.273 0 01-4.268 4.268z"/><path d="M42.396 49.665c-.376 0-.743.153-1.007.417a1.432 1.432 0 00-.416 1.006c0 .374.151.742.416 1.006.266.265.631.417 1.007.417.374 0 .74-.152 1.006-.417.265-.264.417-.632.417-1.006s-.152-.741-.417-1.006a1.433 1.433 0 00-1.006-.417zm4.455-30.078c4.537 0 8.229-3.692 8.229-8.229 0-4.537-3.692-8.228-8.229-8.228-4.537 0-8.228 3.69-8.228 8.228 0 4.537 3.69 8.229 8.228 8.229zm0-13.612a5.389 5.389 0 015.383 5.383 5.389 5.389 0 01-5.383 5.383 5.389 5.389 0 01-5.383-5.383 5.389 5.389 0 015.383-5.383zm-13.897 8.051c.786 0 1.423-.637 1.423-1.422V1.423a1.423 1.423 0 10-2.846 0v11.18c0 .786.637 1.423 1.423 1.423zm-6.829-4.92c.786 0 1.423-.637 1.423-1.423v-6.26a1.423 1.423 0 10-2.846 0v6.26c0 .786.637 1.423 1.423 1.423zM7.759 52.511c.374 0 .741-.152 1.006-.417.264-.264.417-.632.417-1.006s-.153-.741-.417-1.006a1.43 1.43 0 00-1.006-.417c-.374 0-.742.153-1.006.417a1.433 1.433 0 00-.417 1.006c0 .374.152.742.417 1.006a1.43 1.43 0 001.006.417z"/></g><defs><clipPath id="azclip0"><path d="M0 0h73v73H0z"/></clipPath></defs></symbol><symbol viewBox="0 0 19 12.8" id="money2" xmlns="http://www.w3.org/2000/svg"><path d="M18.996 7.525c-.022-.507-.537-.911-1.533-1.203-.772-.222-1.753-.357-2.813-.38v-3.89a.384.384 0 00-.056-.182c-.106-.441-.617-.798-1.522-1.06C12.22.56 11.107.425 9.937.425 8.771.426 7.67.561 6.833.81c-.685.204-1.507.583-1.507 1.236 0 .04.004.08.012.12l.041 1.663C2.92 3.376.545 4.933.08 7.299a4.2 4.2 0 00-.08.813c0 2.406 2.033 4.364 4.531 4.364a4.613 4.613 0 002.855-.977c.708.16 1.54.248 2.423.255.193 1.01 2.464 1.473 4.58 1.473 1.166 0 2.268-.138 3.104-.39.686-.204 1.507-.587 1.507-1.24V7.595c0-.021 0-.047-.004-.069zM13.86 4.07c0 .047-.182.299-1.003.54-.768.222-1.832.353-2.915.353-.935 0-1.851-.095-2.578-.274-.011-.003-.019-.003-.03-.007a4.415 4.415 0 00-1.185-.645L6.12 3.008c.262.127.534.23.818.302.822.23 1.885.354 3.002.354 1.166 0 2.283-.135 3.134-.383.284-.08.56-.186.822-.317v.955c-.042.051-.038.099-.038.15zm-6.8-2.557c.765-.226 1.787-.354 2.877-.354 1.083 0 2.147.128 2.915.354.822.24 1.003.488 1.003.536 0 .05-.185.302-1.007.54-.768.222-1.828.35-2.91.35-1.046 0-2.037-.117-2.79-.329-.815-.226-1.042-.474-1.06-.554 0-.007-.005-.007-.005-.007.004-.07.178-.303.977-.536zm.012 9.29c-1.541 1.349-3.93 1.243-5.33-.24a3.543 3.543 0 01.25-5.134 3.852 3.852 0 012.54-.945c.378 0 .753.055 1.116.16C6.962 5.04 7.95 6.09 8.23 7.384a3.554 3.554 0 01-1.158 3.42zm.961.08c.307-.36.553-.766.727-1.2.322.026.655.044 1.003.048v.066l.023 1.236a12.26 12.26 0 01-1.753-.15zm1.01-3.201c.22.014.451.022.686.025l.023 1.291a13.217 13.217 0 01-.776-.033 4.322 4.322 0 00.068-1.283zm.932-.7h-.038c-.363 0-.715-.015-1.04-.037a4.257 4.257 0 00-.678-1.356c.567.07 1.139.106 1.714.106 1.17 0 2.287-.135 3.139-.383a4.89 4.89 0 00.817-.314v.956c-1.624.043-3.293.372-3.914 1.028zm.5.58c0-.004 0-.008.004-.015.034-.098.302-.34 1.086-.55.735-.201 1.692-.31 2.7-.31h.064c1.082 0 2.142.12 2.915.346.806.233.995.474.999.529v.003c-.004.055-.193.306-1.034.547-.776.223-1.798.343-2.877.343-1.045 0-2.036-.117-2.79-.325-.814-.226-1.037-.477-1.06-.554l-.007-.014zm6.799 4.583c-.765.23-1.79.357-2.881.357-1.094 0-2.116-.124-2.873-.346-.8-.237-.966-.482-.966-.536v-.008l-.019-1.057c.303.142.617.252.943.332.795.2 1.806.313 2.843.313 1.17 0 2.279-.135 3.127-.382a4.97 4.97 0 00.795-.31V11.6h.004c0 .051-.174.303-.973.544zm.976-2.684h-.003c0 .037-.023.08-.023.12 0 .052-.178.3-.996.54-.776.226-1.81.35-2.903.35-2.098 0-3.51-.456-3.805-.81l-.004-.306-.015-.838c.265.127.542.23.826.306.821.23 1.885.354 3.002.354 1.15 0 2.248-.131 3.092-.372.288-.077.564-.182.83-.314v.97z"/></symbol><symbol viewBox="0 0 26 26" id="next" xmlns="http://www.w3.org/2000/svg"><path d="M13 0C5.82 0 0 5.82 0 13s5.82 13 13 13 13-5.82 13-13S20.18 0 13 0zm0 24.375C6.728 24.375 1.625 19.273 1.625 13 1.625 6.728 6.728 1.6 13 1.6c6.273 0 11.375 5.127 11.375 11.4 0 6.273-5.102 11.375-11.375 11.375z" fill-opacity=".4"/><path d="M11.219 6.72a.807.807 0 00-1.149 0 .826.826 0 000 1.161l5.034 5.107-5.035 5.106a.826.826 0 000 1.161c.318.32.832.32 1.15 0l5.606-5.686a.843.843 0 000-1.162L11.219 6.72z" fill-opacity=".4"/></symbol><symbol viewBox="0 0 61.99 62.59" id="offer" xmlns="http://www.w3.org/2000/svg"><g clip-path="url(#bcclip0)"><path d="M31.601 17.348c1.752 0 3.178-1.773 3.178-3.954 0-2.18-1.426-3.953-3.178-3.953-1.753 0-3.179 1.774-3.179 3.953 0 2.18 1.426 3.954 3.179 3.954z"/><path d="M19.95 26.672l-.002.045c-.112 1.952.996 3.786 2.822 4.674l.024.012a7.201 7.201 0 013.26 3.139l.012.023a5.227 5.227 0 004.921 2.724l.044-.002a7.509 7.509 0 014.442 1.156 5.415 5.415 0 005.742 0 7.51 7.51 0 014.442-1.155l.043.002a5.222 5.222 0 004.92-2.723l.01-.018a7.216 7.216 0 013.267-3.148l.019-.009c1.827-.887 2.935-2.722 2.823-4.675l-.003-.043a6.993 6.993 0 011.219-4.338 4.778 4.778 0 000-5.404 6.998 6.998 0 01-1.22-4.339l.003-.044c.111-1.952-.996-3.787-2.823-4.675l-.02-.01a7.208 7.208 0 01-3.263-3.14l-.016-.03c-.923-1.759-2.854-2.826-4.917-2.718l-.045.003a7.521 7.521 0 01-4.44-1.156 5.418 5.418 0 00-5.742 0 7.518 7.518 0 01-4.442 1.155l-.043-.002c-2.063-.11-3.994.96-4.92 2.722l-.012.023a7.215 7.215 0 01-3.266 3.144l-.021.01a4.911 4.911 0 00-2.82 4.673l.002.043a7 7 0 01-1.218 4.339 4.778 4.778 0 000 5.404 7 7 0 011.219 4.338zm30.504-.802c0 3.387-2.409 6.143-5.368 6.143-2.96 0-5.367-2.756-5.367-6.143s2.407-6.142 5.367-6.142 5.368 2.755 5.368 6.143zm-5.63-18.686a1.094 1.094 0 111.857 1.16L31.864 32.081a1.095 1.095 0 01-1.857-1.159L44.824 7.184zM31.6 7.252c2.96 0 5.367 2.756 5.367 6.142 0 3.388-2.407 6.143-5.367 6.143s-5.368-2.755-5.368-6.143c0-3.386 2.408-6.142 5.368-6.142z"/><path d="M41.907 25.87c0 2.181 1.427 3.955 3.179 3.955 1.753 0 3.179-1.774 3.179-3.954s-1.426-3.953-3.18-3.953c-1.752 0-3.178 1.772-3.178 3.953zM57.428 46.2l-.025.012-10.159 4.8c.109.563.156 1.136.14 1.71a1.094 1.094 0 01-1.093 1.063h-.031l-14.868-.409a1.095 1.095 0 11.06-2.189l13.669.376a5.637 5.637 0 00-5.401-4.688l-9.045-.25a11.922 11.922 0 01-5.126-1.323l-.92-.477a13.906 13.906 0 00-14.194.8l-.362 13.158 1.555-.832a6.76 6.76 0 015.04-.551l15.35 4.309c2.96.605 6.034.261 8.786-.983L62.07 46.97a3.977 3.977 0 00-4.642-.77zM.084 61.068l.54-19.577 7.73.212-.539 19.578-7.73-.213z"/></g><defs><clipPath id="bcclip0"><path d="M0 0h62v62H0z"/></clipPath></defs></symbol><symbol viewBox="0 0 17.23 21.97" id="pallete" xmlns="http://www.w3.org/2000/svg"><g clip-path="url(#bdclip0)"><path d="M17.364 6.381a9.013 9.013 0 00-2.04-1.338l-.488.354 1.17 4.665.459.122c1.696-.448 2.248-2.625.9-3.803zm-1.587 8.239a3.25 3.25 0 00-1.121-.82c-.9-.404-1.454-.94-1.454-1.534 0-.638.639-1.208 1.657-1.62l.465-.462-1.694-5.58-.855-.63-.597.19C6.828 3.614 2.2 7.42 2.2 12.266c0 5.73 6.337 9.67 12.194 7.608a3.204 3.204 0 002.11-2.423l.346-.297-.438-2.392-.635-.142z"/><path d="M4.689 12.266c0-4.33 3.696-7.83 8.3-8.133l-.214-.158-.597.189C6.828 3.614 2.2 7.42 2.2 12.266c0 5.084 4.99 8.76 10.206 8.082-4.209-.546-7.717-3.819-7.717-8.082z"/><path d="M6.846 9.873a1.34 1.34 0 100-2.68 1.34 1.34 0 000 2.68zM10.472 8.149a1.3 1.3 0 100-2.6 1.3 1.3 0 000 2.6zM7.507 17.677a1.3 1.3 0 100-2.6 1.3 1.3 0 000 2.6zM11.292 18.891a1.3 1.3 0 100-2.599 1.3 1.3 0 000 2.599zM5.36 14.156a1.568 1.568 0 100-3.135 1.568 1.568 0 000 3.135z"/><path d="M6.84 8.533c0-.497.27-.93.673-1.161a1.34 1.34 0 100 2.323 1.339 1.339 0 01-.673-1.162zM10.506 6.85c0-.475.254-.89.633-1.116a1.3 1.3 0 100 2.23 1.299 1.299 0 01-.633-1.115zM7.541 16.377c0-.474.254-.888.633-1.115a1.3 1.3 0 100 2.23 1.299 1.299 0 01-.633-1.115zM11.325 17.592a1.3 1.3 0 01.633-1.116 1.3 1.3 0 100 2.23 1.298 1.298 0 01-.633-1.114zM5.126 12.588c0-.627.368-1.168.9-1.419a1.568 1.568 0 100 2.838 1.568 1.568 0 01-.9-1.419zM15.468 2.43c-.302-1.112-1.33-1.098-2.27-2.034a.284.284 0 00-.483.132c-.337 1.283-1.23 1.791-.928 2.902.243.894 1.04 1.292 1.485 1.448l.252.206 1.313-.308.084-.346c.305-.36.79-1.107.547-2z"/><path d="M14.479 4.728c-.445-.156-1.242-.554-1.485-1.448-.262-.962.372-1.473.766-2.424a3.87 3.87 0 01-.562-.46.284.284 0 00-.483.132c-.337 1.283-1.23 1.791-.928 2.902.243.894 1.04 1.292 1.485 1.448l.252.206 1.08-.253-.125-.103z"/><path d="M15.238 4.725a.41.41 0 00-.504-.288l-1.298.353a.41.41 0 00-.288.503l.661 2.432.238.174 1.777-.424.075-.318-.661-2.432z"/><path d="M14.925 7.499l-.705-2.595a.437.437 0 01.047-.34l-.83.225a.41.41 0 00-.29.504l.662 2.432.238.173 1.075-.256-.197-.143zM18.794 19.646a14.245 14.245 0 00-.637-4.068L15.918 8.44l-.292-.204-1.11.251-.073.354 1.683 7.288a14.241 14.241 0 001.51 3.831l.284.494a.471.471 0 00.88-.24l-.006-.569z"/><path d="M18.601 19.55a14.245 14.245 0 01-1.51-3.83l-1.683-7.288.031-.153-.923.209-.073.354 1.683 7.288a14.241 14.241 0 001.51 3.831l.284.494a.471.471 0 00.88-.24l-.003-.323-.196-.341z"/><path d="M15.838 7.167l-1.97.536a.349.349 0 00-.246.428l.145.533a.35.35 0 00.428.246l1.97-.536a.349.349 0 00.246-.428l-.145-.533a.349.349 0 00-.428-.246z"/><path d="M15.004 8.336l-.154-.569a.372.372 0 01.09-.356l-1.073.292a.349.349 0 00-.245.428l.145.534a.35.35 0 00.428.245l1.114-.303a.372.372 0 01-.305-.27zM6.846 10.18c.908 0 1.647-.739 1.647-1.647s-.739-1.647-1.647-1.647-1.647.739-1.647 1.647.739 1.647 1.647 1.647zm0-2.679a1.033 1.033 0 010 2.064 1.033 1.033 0 010-2.064zm3.626.955c.886 0 1.607-.72 1.607-1.607 0-.886-.72-1.607-1.607-1.607-.886 0-1.607.721-1.607 1.607 0 .887.721 1.607 1.607 1.607zm0-2.598a.993.993 0 010 1.983.993.993 0 010-1.983zM7.507 17.984c.886 0 1.607-.72 1.607-1.607 0-.886-.72-1.607-1.607-1.607-.886 0-1.607.721-1.607 1.607s.721 1.607 1.607 1.607zm0-2.599a.993.993 0 010 1.984.993.993 0 010-1.984zm3.785 3.814c.886 0 1.607-.721 1.607-1.607s-.721-1.607-1.607-1.607c-.887 0-1.608.72-1.608 1.607a1.61 1.61 0 001.608 1.607zm0-2.6a.993.993 0 010 1.985.993.993 0 010-1.984zm-7.808-4.011c0 1.035.842 1.876 1.876 1.876a1.878 1.878 0 001.875-1.876 1.878 1.878 0 00-1.875-1.875 1.878 1.878 0 00-1.876 1.876zm1.876-1.26a1.261 1.261 0 11-1.26 1.26c0-.694.565-1.26 1.26-1.26z"/><path d="M1.893 12.266c0 4.64 3.997 8.168 8.662 8.452h.02a.308.308 0 00.018-.614c-4.534-.276-8.085-3.72-8.085-7.838 0-4.667 4.443-8.268 9.52-7.808.232.241.516.434.813.575a.728.728 0 00.01.341l.609 2.24a.658.658 0 00-.135.598l.145.533a.658.658 0 00.744.475l.288 1.245c-1.04.473-1.608 1.107-1.608 1.801 0 .697.581 1.341 1.636 1.815.375.168.699.399.965.686.339 1.485.443 1.957.69 2.703a2.883 2.883 0 01-1.894 2.114 9.456 9.456 0 01-2.309.5.308.308 0 00.054.613 10.075 10.075 0 002.46-.533 3.533 3.533 0 002.022-1.797c.411 1.01.786 1.634 1.135 2.241a.78.78 0 001.455-.395c-.011-1.03.016-2.58-.708-4.888a.308.308 0 10-.587.185c.68 2.166.668 3.603.68 4.71a.164.164 0 01-.306.082c-1.295-2.257-1.458-2.926-2.11-5.751l-1.268-5.49.904-.245.458 1.46 1.212 3.863a.307.307 0 10.587-.184l-1.12-3.575c1.694-.686 2.168-2.963.717-4.23a9.303 9.303 0 00-1.981-1.32l-.05-.185a.713.713 0 00-.165-.298c.31-.458.62-1.168.395-1.998-.217-.796-.75-1.103-1.313-1.429-.342-.197-.696-.401-1.037-.74a.592.592 0 00-.998.27c-.122.466-.324.821-.518 1.164-.325.573-.721 1.239-.302 2.2-5.222-.224-9.704 3.563-9.704 8.453zm13.375 1.517a3.722 3.722 0 00-.487-.264c-.808-.363-1.271-.82-1.271-1.253 0-.413.408-.837 1.133-1.188l.625 2.705zm1.894-7.17c1.089.95.738 2.647-.498 3.178l-.358-1.14a.66.66 0 00.402-.786l-.145-.533a.658.658 0 00-.42-.448l-.336-1.24a8.66 8.66 0 011.355.969zm-1.244.851a.042.042 0 01.05.03l.146.532a.041.041 0 01-.03.051l-1.97.536a.041.041 0 01-.05-.03l-.145-.532a.042.042 0 01.029-.05l1.97-.537zm-.398-.529l-1.497.407-.579-2.13a.104.104 0 01.073-.126l1.298-.353c.05-.013.11.014.126.073l.579 2.13zm-3.086-5.018c.2-.352.426-.75.57-1.28.39.383.789.612 1.14.815.51.294.877.506 1.027 1.058.183.674-.132 1.262-.394 1.608a.761.761 0 00-.124.022l-1.298.353a.773.773 0 00-.118.043c-.544-.223-.998-.614-1.153-1.187-.15-.552.06-.92.35-1.432z"/></g><defs><clipPath id="bdclip0"><path d="M0 0h21v21H0z"/></clipPath></defs></symbol><symbol viewBox="0 0 16 14" id="phone" xmlns="http://www.w3.org/2000/svg"><path d="M14.737 9.218a10.33 10.33 0 01-2.87-.4c-.447-.134-.955-.03-1.249.232l-1.816 1.2C6.717 9.277 5.384 8.11 4.286 6.3l1.335-1.552c.336-.294.456-.724.312-1.127a7.094 7.094 0 01-.46-2.516C5.474.495 4.908 0 4.212 0H1.263C.567 0 0 .496 0 1.105 0 8.215 6.611 14 14.737 14c.696 0 1.263-.496 1.263-1.105v-2.572c0-.61-.567-1.105-1.263-1.105z"/></symbol><symbol viewBox="0 0 45 41" id="phoneic" xmlns="http://www.w3.org/2000/svg"><path d="M41.447 26.995a28.03 28.03 0 01-8.071-1.17c-1.258-.394-2.686-.09-3.513.678l-5.108 3.515c-5.862-2.85-9.614-6.266-12.7-11.568l3.754-4.544c.945-.862 1.284-2.122.879-3.302a21.538 21.538 0 01-1.293-7.367C15.395 1.452 13.8 0 11.842 0h-8.29C1.595 0 0 1.452 0 3.237 0 24.058 18.595 41 41.447 41 43.407 41 45 39.548 45 37.763v-7.53c0-1.785-1.594-3.238-3.553-3.238z"/></symbol><symbol viewBox="0 0 26 26" id="prev" xmlns="http://www.w3.org/2000/svg"><path d="M13 0c7.18 0 13 5.82 13 13s-5.82 13-13 13S0 20.18 0 13 5.82 0 13 0zm0 24.375c6.273 0 11.375-5.102 11.375-11.375 0-6.272-5.102-11.4-11.375-11.4C6.728 1.6 1.625 6.727 1.625 13c0 6.273 5.103 11.375 11.375 11.375z" fill-opacity=".4"/><path d="M14.781 6.72a.807.807 0 011.149 0 .826.826 0 010 1.161l-5.034 5.107 5.035 5.106c.317.32.317.84 0 1.161a.807.807 0 01-1.15 0L9.177 13.57a.843.843 0 010-1.162L14.78 6.72z" fill-opacity=".4"/></symbol><symbol viewBox="0 0 62.78 58.3" id="sale" xmlns="http://www.w3.org/2000/svg"><path d="M15.063 25.003c-1.133 0-2.09 1.248-2.09 2.724 0 1.478.957 2.726 2.09 2.726 1.134 0 2.092-1.248 2.092-2.726 0-1.476-.958-2.724-2.092-2.724zm18.33 14.409c-1.134 0-2.09 1.248-2.09 2.726 0 1.476.956 2.724 2.09 2.724 1.133 0 2.091-1.248 2.091-2.724 0-1.478-.958-2.726-2.091-2.726z"/><path d="M45.271 17.338C26.855.392 27.797 1.039 26.333.47c-2.081-.825-4.557-.393-6.267 1.18L3.016 17.338A9.375 9.375 0 000 24.223v27.78c0 3.273 2.65 5.937 5.906 5.937H42.38c3.257 0 5.906-2.664 5.906-5.937v-27.78a9.38 9.38 0 00-3.015-6.885zm-22.885-5.956a1.815 1.815 0 012.162-1.602 1.815 1.815 0 11-2.162 1.602zM9.34 27.728c0-3.506 2.568-6.358 5.723-6.358 3.157 0 5.725 2.852 5.725 6.357 0 3.506-2.568 6.36-5.725 6.36-3.155 0-5.723-2.854-5.723-6.36zM19.753 47.06c-1.283 0-2.179-1.316-1.673-2.52l8.842-21.075a1.817 1.817 0 113.351 1.406L21.43 45.947a1.817 1.817 0 01-1.676 1.114zm13.64 1.434c-3.156 0-5.723-2.852-5.723-6.357 0-3.506 2.567-6.359 5.723-6.359 3.155 0 5.724 2.853 5.724 6.359 0 3.505-2.569 6.357-5.724 6.357z"/><path d="M61.544 37.287c-5.914-17.217-9.2-26.789-9.246-26.898a9.278 9.278 0 00-5.48-5.078c-.14-.048.69.154-12.483-2.972l13.394 12.325a13.016 13.016 0 014.19 9.56v23.54l6.535-2.798c2.956-1.278 4.33-4.711 3.09-7.68z"/></symbol><symbol viewBox="0 0 12.21 11.67" id="search" xmlns="http://www.w3.org/2000/svg"><path d="M11.92 11.008L9.056 8.144a4.77 4.77 0 00-.432-6.288A4.76 4.76 0 005.232.448 4.76 4.76 0 001.84 1.856a4.8 4.8 0 000 6.784 4.76 4.76 0 003.392 1.408 4.72 4.72 0 002.896-.976l2.88 2.848a.64.64 0 00.464.192c.16 0 .336-.064.464-.192a.652.652 0 00-.016-.912zM5.248 8.752a3.512 3.512 0 01-2.48-1.024c-1.36-1.36-1.36-3.584 0-4.96a3.484 3.484 0 012.48-1.024c.944 0 1.808.368 2.48 1.024.672.656 1.024 1.536 1.024 2.48s-.368 1.808-1.024 2.48a3.446 3.446 0 01-2.48 1.024z"/></symbol><symbol viewBox="0 0 21.72 21.83" id="sendmes" xmlns="http://www.w3.org/2000/svg"><path d="M.639 6.534l10.108 5.238 5.075-5.101.582.584-5.076 5.102 5.212 10.16L22.36.683.64 6.533z"/></symbol><symbol viewBox="0 0 27.03 26.3" id="shopping" xmlns="http://www.w3.org/2000/svg"><g clip-path="url(#bkclip0)"><path d="M8.613 21.001a2.819 2.819 0 100 5.638 2.819 2.819 0 000-5.638zm0 4.385a1.566 1.566 0 110-3.132 1.566 1.566 0 010 3.132zm11.901-4.385a2.819 2.819 0 100 5.637 2.819 2.819 0 000-5.637zm0 4.385a1.566 1.566 0 110-3.132 1.566 1.566 0 010 3.132zm6.358-20.828a.783.783 0 00-.5-.25l-20.39-.282-.564-1.723A2.881 2.881 0 002.725.361H.626a.626.626 0 100 1.253h2.099A1.63 1.63 0 014.228 2.71l3.978 11.996-.313.72a3.003 3.003 0 00.282 2.725 2.913 2.913 0 002.348 1.315h12.184a.626.626 0 100-1.252H10.523a1.597 1.597 0 01-1.315-.752 1.723 1.723 0 01-.157-1.503l.251-.564 13.186-1.378a3.445 3.445 0 002.975-2.631l1.503-6.295a.532.532 0 00-.094-.533zm-2.63 6.546a2.13 2.13 0 01-1.911 1.66L9.302 14.111 6.389 5.279l19.2.281-1.348 5.544z"/></g><defs><clipPath id="bkclip0"><path d="M0 0h27v27H0z"/></clipPath></defs></symbol><symbol viewBox="0 0 17.97 21" id="shopping-bag" xmlns="http://www.w3.org/2000/svg"><path d="M10.511 9.497a4.424 4.424 0 100 8.847 4.424 4.424 0 000-8.847zm0 8.208a3.785 3.785 0 110-7.57 3.785 3.785 0 010 7.57z"/><path d="M12.476 12.512l-2.502 2.39-1.326-1.327a.32.32 0 10-.451.451l1.546 1.547a.32.32 0 00.447.005l2.727-2.605a.32.32 0 00-.13-.539.32.32 0 00-.311.078z"/><path d="M17.403 6.606a1.43 1.43 0 00-1.42-1.211h-1.457v-1.38a4.014 4.014 0 10-8.029 0v1.38H5.04a1.43 1.43 0 00-1.419 1.21L1.533 18.39a.308.308 0 00-.005.056A2.558 2.558 0 004.083 21H16.94a2.558 2.558 0 002.555-2.555.328.328 0 00-.005-.056L17.403 6.606zM7.136 4.014a3.376 3.376 0 016.751 0v1.38H7.136v-1.38zm9.804 16.348H4.083a1.919 1.919 0 01-1.917-1.89L4.25 6.714v-.006a.795.795 0 01.79-.675h1.458v2.12a.32.32 0 10.638 0v-2.12h6.752v2.12a.32.32 0 00.639 0v-2.12h1.458a.795.795 0 01.79.681l2.083 11.758a1.919 1.919 0 01-1.917 1.89z"/></symbol><symbol viewBox="0 0 28.85 30" id="shoppingAdded" xmlns="http://www.w3.org/2000/svg"><path d="M10.418 30a3.222 3.222 0 100-6.444 3.222 3.222 0 000 6.444zm13.603 0a3.222 3.222 0 100-6.444 3.222 3.222 0 000 6.444zM7.876 5.62l-1.11-3.365A3.294 3.294 0 003.687 0H1.29a.716.716 0 100 1.432h2.398a1.862 1.862 0 011.719 1.253l4.51 13.711-.322.824a3.544 3.544 0 00.287 3.114 3.33 3.33 0 002.685 1.504h13.962a.716.716 0 100-1.432H12.566a1.79 1.79 0 01-1.468-.86 1.862 1.862 0 01-.18-1.718l.43-1.074a.93.93 0 00.036-.537l-.215-.537 14.57-1.503a2.47 2.47 0 002.185-1.898l1.503-6.336L7.876 5.62z"/><path d="M18.5 6a4.505 4.505 0 00-4.5 4.5c0 2.481 2.019 4.5 4.5 4.5s4.5-2.019 4.5-4.5S20.981 6 18.5 6zm2.509 3l-2.77 3.115a.346.346 0 01-.475.04l-1.73-1.385a.346.346 0 11.432-.54l1.474 1.179 2.551-2.87a.346.346 0 11.518.46z"/></symbol><symbol viewBox="0 0 18.15 17.31" id="star" xmlns="http://www.w3.org/2000/svg"><path d="M4.029 17.636a.957.957 0 01-.932-1.17l1.158-5.101L.327 7.921A.956.956 0 01.87 6.247l5.196-.472L8.12.968A.956.956 0 019.88.967l2.054 4.808 5.195.472a.956.956 0 01.544 1.674l-3.927 3.443 1.158 5.101a.956.956 0 01-1.423 1.034L9 14.82 4.52 17.5a.958.958 0 01-.491.135zm4.97-3.968c.171 0 .34.045.492.135l4.228 2.53-1.093-4.815a.957.957 0 01.303-.932l3.708-3.252-4.905-.446a.956.956 0 01-.795-.58L9 1.771 7.06 6.31a.953.953 0 01-.793.578l-4.906.445 3.708 3.252c.265.233.382.59.303.933L4.28 16.332l4.228-2.529a.958.958 0 01.49-.135zm-2.973-7.8v.002-.002zm5.946-.002l.001.001v-.001z"/></symbol><symbol viewBox="0 0 18.07 17.21" id="starFilled" xmlns="http://www.w3.org/2000/svg"><path d="M17.974 6.935a.527.527 0 00-.425-.359l-5.58-.81L9.473.708a.527.527 0 00-.946 0L6.032 5.765l-5.58.811a.527.527 0 00-.293.9l4.038 3.935-.953 5.558a.527.527 0 00.765.556L9 14.9l4.99 2.624a.527.527 0 00.766-.556l-.953-5.558 4.038-3.936a.527.527 0 00.133-.54z"/></symbol><symbol viewBox="0 0 25 24.5" id="statistical" xmlns="http://www.w3.org/2000/svg"><g clip-path="url(#bpclip0)"><path d="M6.08 13.174H.815c-.45 0-.815.394-.815.88v11.373c0 .486.365.88.815.88H6.08c.45 0 .815-.394.815-.88V14.055c0-.487-.365-.88-.815-.88zm-.815 11.372H1.63v-9.611h3.635v9.611zm9.867-22.744H9.868c-.45 0-.816.394-.816.88v22.744c0 .487.365.88.816.88h5.264c.45 0 .816-.393.816-.88V2.682c0-.486-.365-.88-.816-.88zm-.815 22.744h-3.634V3.563h3.634v20.983zm9.868-17.058H18.92c-.45 0-.815.394-.815.88v17.059c0 .486.365.88.815.88h5.265c.45 0 .815-.394.815-.88V8.367c0-.486-.365-.88-.815-.88zm-.815 17.058h-3.635V9.25h3.635v15.297z"/></g><defs><clipPath id="bpclip0"><path transform="translate(0 .554)" d="M0 0h25v27H0z"/></clipPath></defs></symbol><symbol viewBox="0 0 56.78 58.73" id="thumb" xmlns="http://www.w3.org/2000/svg"><path d="M14.712 25.403H5.848a3.057 3.057 0 00-3.05 3.058v28.805a3.057 3.057 0 003.05 3.058h8.864a3.065 3.065 0 003.058-3.058V28.461a3.064 3.064 0 00-3.058-3.058zm43.174 10.029a5.221 5.221 0 00-1.525-3.686 2.518 2.518 0 00-.268-.252 5.095 5.095 0 00-1.977-9.786H35.935c.1-.176.193-.335.276-.494.524-.845.94-1.75 1.24-2.698.401-1.313.646-2.668.73-4.038a14.864 14.864 0 00-3.855-10.884 5.673 5.673 0 00-3.996-1.918 4.124 4.124 0 00-4.256 3.653.562.562 0 00-.009.117v7.34l-4.86 12.316a7.897 7.897 0 01-1.759 2.672V56.16c1.2.33 2.42.58 3.653.746.459.061.92.092 1.383.092h24.64a4.627 4.627 0 003.251-1.34 4.578 4.578 0 001.34-3.243 4.53 4.53 0 00-1.139-3.016 5.264 5.264 0 002.263-9.216 5.232 5.232 0 003.05-4.75z"/></symbol><symbol viewBox="0 0 17.88 22" id="trash" xmlns="http://www.w3.org/2000/svg"><path d="M18.219 2.75h-3.782v-.688A2.06 2.06 0 0012.376 0h-2.75c-1.14 0-2.063.923-2.063 2.063v.687h-3.78c-.95 0-1.72.77-1.72 1.719v1.375c0 .38.308.687.688.687h16.5c.38 0 .688-.308.688-.687V4.469c0-.95-.77-1.719-1.72-1.719zm-9.282-.688c0-.378.309-.687.688-.687h2.75a.69.69 0 01.688.688v.687H8.936v-.688zm-5.57 5.844a.215.215 0 00-.214.225l.567 11.904A2.06 2.06 0 005.78 22h10.44a2.06 2.06 0 002.06-1.965l.567-11.904a.215.215 0 00-.214-.225H3.367zM13.75 9.625a.687.687 0 111.375 0v8.938a.687.687 0 11-1.375 0V9.624zm-3.438 0a.687.687 0 111.376 0v8.938a.687.687 0 11-1.376 0V9.624zm-3.437 0a.687.687 0 111.375 0v8.938a.687.687 0 11-1.375 0V9.624z"/></symbol><symbol viewBox="0 0 16.55 13.77" id="twitter" xmlns="http://www.w3.org/2000/svg"><path d="M14.722 2.958a3.028 3.028 0 001.448-1.712s-.87.63-2.056.704l-.022.012a3.322 3.322 0 00-5.67 3.052l-.015-.023s-3.557.204-6.91-3.467c0 0-1.483 2.521 1.056 4.45-.556.092-1.538-.409-1.538-.409s.056 2.65 2.686 3.3c-.426.111-1.223.148-1.482.037 0 0 .39 2.02 3.076 2.373-.686.39-1.964 1.575-4.854 1.353 0 0 2.075 1.705 5.929 1.464 3.853-.24 6.65-2.836 7.78-5.58 1.13-2.743.816-4.305.816-4.305s.945-.496 1.594-1.682c-.3.09-1.412.362-1.826.462a.911.911 0 01-.012-.029z"/></symbol><symbol viewBox="0 0 22.53 27" id="user" xmlns="http://www.w3.org/2000/svg"><g clip-path="url(#btclip0)"><path d="M13.307 13.65c1.787 0 3.334-.64 4.599-1.905 1.264-1.264 1.905-2.811 1.905-4.598s-.641-3.334-1.906-4.598C16.641 1.285 15.094.644 13.307.644s-3.333.64-4.598 1.905C7.445 3.813 6.804 5.36 6.804 7.147s.641 3.334 1.905 4.598c1.265 1.264 2.812 1.905 4.598 1.905zM9.828 3.668c.97-.97 2.108-1.442 3.48-1.442 1.37 0 2.508.472 3.479 1.442.97.97 1.441 2.108 1.441 3.479 0 1.37-.471 2.509-1.441 3.48-.97.97-2.109 1.44-3.48 1.44-1.37 0-2.508-.47-3.479-1.44-.97-.971-1.442-2.11-1.442-3.48s.472-2.509 1.442-3.48zm14.858 17.738a16.06 16.06 0 00-.218-1.706 13.508 13.508 0 00-.42-1.716 8.473 8.473 0 00-.705-1.6A6.03 6.03 0 0022.279 15a4.688 4.688 0 00-1.527-.96 5.28 5.28 0 00-1.95-.353c-.276 0-.542.113-1.057.448a122.1 122.1 0 01-1.101.71c-.354.226-.833.437-1.425.628a5.659 5.659 0 01-1.742.282 5.663 5.663 0 01-1.743-.282c-.59-.191-1.07-.402-1.423-.627-.41-.262-.78-.501-1.102-.71-.515-.336-.781-.449-1.057-.449-.702 0-1.358.119-1.95.353a4.685 4.685 0 00-1.527.96c-.401.384-.76.85-1.063 1.385a8.492 8.492 0 00-.705 1.6c-.169.528-.31 1.105-.42 1.716a15.95 15.95 0 00-.218 1.706 23.106 23.106 0 00-.054 1.595c0 1.409.448 2.55 1.331 3.391.873.83 2.027 1.252 3.431 1.252h13.001c1.404 0 2.558-.421 3.431-1.252.884-.84 1.332-1.982 1.332-3.392 0-.544-.019-1.08-.055-1.594zm-2.368 3.84c-.576.549-1.342.816-2.34.816h-13c-1 0-1.765-.267-2.34-.816-.566-.538-.841-1.273-.841-2.245 0-.506.017-1.006.05-1.485.032-.47.099-.988.198-1.537.097-.542.221-1.051.369-1.512a6.91 6.91 0 01.573-1.3c.229-.403.492-.747.782-1.025a3.11 3.11 0 011.016-.632 3.642 3.642 0 011.246-.24c.055.03.154.086.314.19.325.212.7.454 1.115.718.467.298 1.069.567 1.788.8a7.24 7.24 0 002.23.358c.743 0 1.493-.12 2.228-.358.72-.233 1.322-.502 1.79-.8.424-.271.788-.506 1.113-.718.16-.104.259-.16.314-.19.455.012.874.093 1.247.24.402.16.744.373 1.016.632.29.278.552.622.78 1.024.24.421.434.86.575 1.3.148.462.272.971.37 1.513.098.55.164 1.067.197 1.537.034.478.05.977.05 1.485 0 .973-.274 1.707-.84 2.245z"/></g><defs><clipPath id="btclip0"><path transform="translate(0 .644)" d="M0 0h27v27H0z"/></clipPath></defs></symbol><symbol viewBox="0 0 18.16 19" id="user2" xmlns="http://www.w3.org/2000/svg"><path d="M9.5 9.524c-5.007 0-9.08 4.074-9.08 9.081a.395.395 0 00.79 0c0-4.572 3.718-8.291 8.29-8.291 4.572 0 8.291 3.72 8.291 8.291a.395.395 0 00.79 0c0-5.008-4.074-9.08-9.08-9.08zM9.5 0a4.348 4.348 0 00-4.343 4.343A4.348 4.348 0 009.5 8.686a4.348 4.348 0 004.343-4.343A4.348 4.348 0 009.5 0zm0 7.896a3.558 3.558 0 01-3.553-3.553A3.558 3.558 0 019.5.79a3.558 3.558 0 013.553 3.553A3.558 3.558 0 019.5 7.896z"/></symbol><symbol viewBox="0 0 18.5 10.39" id="vk" xmlns="http://www.w3.org/2000/svg"><path d="M9.275 10.578h1.078s.325-.035.49-.213c.158-.166.158-.473.158-.473s-.023-1.445.652-1.657c.665-.21 1.509 1.395 2.408 2.012.687.472 1.204.37 1.204.37l2.408-.032s1.262-.08.665-1.07c-.046-.079-.338-.731-1.778-2.07-1.509-1.396-1.306-1.17.507-3.59 1.102-1.474 1.552-2.375 1.406-2.757-.124-.36-.945-.271-.945-.271L14.827.85s-.203-.023-.349.068c-.146.089-.236.293-.236.293s-.429 1.147-1.002 2.115c-1.217 2.047-1.7 2.16-1.892 2.024-.453-.293-.337-1.185-.337-1.824 0-1.98.303-2.812-.585-3.026-.293-.068-.511-.112-1.264-.124-.968-.011-1.784.007-2.246.233-.304.152-.54.489-.405.506.18.023.585.11.798.403.282.38.27 1.227.27 1.227s.158 2.337-.37 2.627c-.372.197-.867-.21-1.947-2.067-.551-.945-.968-2.002-.968-2.002s-.08-.192-.225-.305C3.9.874 3.652.829 3.652.829L1.075.852s-.382.012-.516.18c-.125.146-.012.461-.012.461s2.014 4.715 4.299 7.09c2.092 2.176 4.467 2.036 4.467 2.036l-.038-.041z"/></symbol></svg>